<?xml version="1.0" encoding="UTF-8"?>
<svg id="Layer_1" xmlns="http://www.w3.org/2000/svg" version="1.1" viewBox="0 0 16 16">
  <!-- Generator: Adobe Illustrator 29.3.1, SVG Export Plug-In . SVG Version: 2.1.0 Build 151)  -->
  <path d="M12,4.4c.1-.5.8-.5.9,0h0c0,.2.3.4.5.3,0,0,.1,0,.2-.1h0c.3-.3.9,0,.8.4h0c0,.2,0,.5.3.5,0,0,.2,0,.2,0h0c.5-.1.8.4.4.8h0c-.2.2-.2.4,0,.6,0,0,.1,0,.2.1h0c.5.1.5.8,0,.9h0c-.2,0-.4.3-.3.5,0,0,0,.1.1.2h0c.3.3,0,.9-.4.8h0c-.2,0-.5,0-.5.3,0,0,0,.2,0,.2h0c.1.5-.4.8-.8.4h0c-.2-.2-.4-.2-.6,0,0,0,0,.1-.1.2h0c-.1.5-.8.5-.9,0h0c0-.2-.3-.4-.5-.3,0,0-.1,0-.2.1h0c-.3.3-.9,0-.8-.4h0c0-.2,0-.5-.3-.5,0,0-.2,0-.2,0h0c-.5.1-.8-.4-.4-.8h0c.2-.2.2-.4,0-.6,0,0-.1,0-.2-.1h0c-.5-.1-.5-.8,0-.9h0c.2,0,.4-.3.3-.5,0,0,0-.1-.1-.2h0c-.3-.3,0-.9.4-.8h0c.2,0,.5,0,.5-.3,0,0,0-.2,0-.2h0c-.1-.5.4-.8.8-.4h0c.2.2.4.2.6,0,0,0,0-.1.1-.2h0ZM13.1,4h0c0,0,0,0,0,0ZM13,12h0c0,0,0,0,0,0Z"/>
  <g>
    <path d="M8.2,7.5c0-2.2,1.6-3.9,3.7-4.2-.7-.4-1.5-.6-2.3-.6-2.6,0-4.8,2.1-4.8,4.8s2.1,4.8,4.8,4.8,1.6-.2,2.3-.6c-2.1-.2-3.7-2-3.7-4.2Z"/>
    <rect x=".1" y="5.9" width="6.1" height="3.2" rx="1.6" ry="1.6"/>
  </g>
</svg>